<svg preserveAspectRatio="none" overflow="visible" style="display: block;" width="48" height="44.9178" viewBox="0 0 48 44.9178" fill="none" xmlns="http://www.w3.org/2000/svg">
<g id="spinner">
<mask id="path-1-inside-1_0_32" fill="white">
<path d="M48 20.9178C48 25.1421 46.885 29.2916 44.7678 32.9469C42.6505 36.6023 39.6059 39.6341 35.9417 41.736C32.2775 43.8379 28.1234 44.9354 23.8991 44.9176C19.6749 44.8998 15.5301 43.7675 11.8837 41.6348C8.23725 39.5022 5.21829 36.445 3.13183 32.7719C1.04537 29.0989 -0.0346656 24.9402 0.000848394 20.716C0.0363624 16.4919 1.18617 12.352 3.33409 8.71453C5.48201 5.07709 8.55195 2.071 12.2337 1.06838e-07L24 20.9178L48 20.9178Z"/>
</mask>
<path d="M48 20.9178C48 25.1421 46.885 29.2916 44.7678 32.9469C42.6505 36.6023 39.6059 39.6341 35.9417 41.736C32.2775 43.8379 28.1234 44.9354 23.8991 44.9176C19.6749 44.8998 15.5301 43.7675 11.8837 41.6348C8.23725 39.5022 5.21829 36.445 3.13183 32.7719C1.04537 29.0989 -0.0346656 24.9402 0.000848394 20.716C0.0363624 16.4919 1.18617 12.352 3.33409 8.71453C5.48201 5.07709 8.55195 2.071 12.2337 1.06838e-07L24 20.9178L48 20.9178Z" fill="#5498FF" stroke="#5498FF" stroke-width="8" mask="url(#path-1-inside-1_0_32)"/>
</g>
</svg>
